v -14.9746666 -12.50476742 25.61250496
vn -0.9995411038 -0.03015398979 0.002890009666
v -14.89803982 -13.083992 25.28039551
vn -0.9666754603 -0.2549479306 0.02323984914
v -14.8997488 -11.90591526 23.90609169
vn -0.9695250988 0.2449056208 0.006502363365
v -14.90861893 -11.86756897 25.43040085
vn -0.9746810198 0.2195718139 -0.04225127026
v -14.64855385 -13.72298336 24.95310974
vn -0.8679543734 -0.4962365627 0.02011284791
v -14.64156055 -11.25621319 24.77682495
vn -0.8676636815 0.496842593 -0.0175249055
v -14.27479267 -14.22083378 24.13831329
vn -0.7108296752 -0.7033640146 -0.0004864883667
v -14.24164867 -14.22119808 25.43996429
vn -0.7109872699 -0.7010708451 0.05474311858
v -14.24026489 -10.73796272 23.98487663
vn -0.7064632177 0.7075865269 0.01520051807
v -14.2095499 -10.70440102 24.92183876
vn -0.6801348925 0.7323883772 -0.03199560568
v -14.27364922 -10.70038509 25.4631424
vn -0.7226085663 0.6738750339 -0.1540431678
v -13.80861855 -14.59275723 24.78614807
vn -0.5329614878 -0.8459732533 0.01677226461
v -13.78770447 -10.37439156 25.05303955
vn -0.5174873471 0.8524119258 -0.0748386234
v -13.12325859 -14.89014053 23.73548889
vn -0.2488714904 -0.9683228135 -0.02034590021
v -13.22258472 -14.86320114 24.79176521
vn -0.317527622 -0.9480158687 0.02102646977
v -13.04087639 -10.07989025 23.56832695
vn -0.223252669 0.9743918777 0.0268089287
v -13.11677647 -10.08616257 25.08256149
vn -0.2650919855 0.960898459 -0.08000275493
v -12.53141499 -14.97195625 25.01602936
vn -0.01903989911 -0.9995054603 0.02502690628
v -12.4812479 -10.00725842 25.07240677
vn 0.02011621743 0.9987266064 -0.04626503959
v -11.78028679 -14.86707401 23.77892303
vn 0.2995687127 -0.9538912177 -0.01871202514
v -11.89918804 -14.89443684 24.90323639
vn 0.2527649403 -0.9672366381 0.02373082377
v -11.82641983 -10.0838871 25.21702957
vn 0.2687520087 0.9539690018 -0.1330997646
v -11.30191231 -14.6570549 24.86241341
vn 0.4873196781 -0.8729591966 0.02148803882
v -11.26159954 -10.34811497 24.87591171
vn 0.4902588725 0.8711022735 -0.02875935659
v -10.75115204 -14.25015354 24.75908852
vn 0.7004001737 -0.713730216 0.00536266854
v -10.81649971 -10.68226242 23.65422058
vn 0.6873890162 0.7262424827 0.008260495029
v -10.74584961 -10.74870872 24.61210632
vn 0.7219439149 0.6919147968 -0.007133939769
v -10.35343742 -13.73008537 23.62511826
vn 0.8665888906 -0.4988691211 -0.012380898
v -10.37967682 -13.77135468 25.06369781
vn 0.8563457131 -0.5158830881 0.02316644788
v -10.12595654 -13.19026566 25.04929161
vn 0.9582746029 -0.2854905427 0.01431650948
v -10.10122681 -11.80388832 25.44999504
vn 0.9698638916 0.2408533543 -0.03679304942
v -10.02289009 -12.49031639 24.86037064
vn 0.9998875856 -0.01476760302 0.002595155267
v -14.97147465 -12.59028816 24.21768188
vn -0.9998796582 -0.01550010312 0.0006522459444
v -14.88050747 -13.18259144 24.30575371
vn -0.9554796219 -0.2950553 0.001031521941
v -13.19074821 -10.11783314 24.15639496
vn -0.2769581378 0.960880816 -0.001499611186
v -10.54685402 -10.97868633 23.93877411
vn 0.7784150243 0.6276806593 0.009330460802
v -12.59410286 -10.02301216 24.31726074
vn -0.04044378549 0.9991657734 -0.0056620338
v -11.89007664 -10.0997076 24.21017456
vn 0.2598909438 0.9656354785 -0.002185596153
v -11.22824669 -10.37031746 24.16036034
vn 0.5091292262 0.8606726527 0.005480269901
v -10.10453415 -11.84890747 24.01137543
vn 0.9674134254 0.2531810403 0.003264689352
v -12.20501137 -10.03761864 24.71563721
vn 0.1111578047 0.9936309457 -0.01848050021
v -10.32373047 -11.31305504 24.43342209
vn 0.8705614209 0.491977036 0.009020087309
v -13.69396019 -10.33360004 24.3620739
vn -0.4979173839 0.8671529293 0.01113839634
v -14.95713997 -12.23353195 24.02959633
vn -0.9940584302 0.1087409258 0.004827747121
v -14.96641827 -12.22645283 25.51415825
vn -0.9962550402 0.08422490209 -0.01954491436
v -14.95576859 -12.78174591 25.41456795
vn -0.9909234643 -0.133615911 0.01474556793
v -14.95423508 -12.83372498 24.79132652
vn -0.9917496443 -0.1280564964 0.005844981875
v -14.97298622 -12.52914047 25.01797676
vn -0.9999682307 -0.007129782345 -0.003569160588
v -14.955616 -12.23008633 24.80397797
vn -0.9943665862 0.1056464612 -0.008596044965
v -14.79096985 -13.43574715 23.94768715
vn -0.9229210615 -0.3849405944 -0.006122973282
v -14.94367504 -12.92118645 24.25473976
vn -0.9864366055 -0.1641420424 -0.0004123323015
v -14.79759502 -13.34964943 25.6359539
vn -0.927752316 -0.3695586026 0.05198111013
v -14.79425716 -13.40617371 25.17369843
vn -0.9266112447 -0.3751623631 0.02539398149
v -14.64973831 -13.68291473 25.47128868
vn -0.8686462641 -0.4926376939 0.05255214497
v -14.7911768 -13.43369293 24.62371445
vn -0.9227173328 -0.3854005039 0.007689855993
v -14.89548683 -13.12296963 24.7747345
vn -0.9632570744 -0.2683532536 0.01105954964
v -14.79439926 -11.57721138 23.75794792
vn -0.9280896187 0.3720993698 0.01384737808
v -14.90102768 -11.91294098 24.63826752
vn -0.9717820883 0.235697031 -0.009299907833
v -14.801754 -11.57910442 25.0449543
vn -0.9304893613 0.3650093377 -0.03094659932
v -14.80102158 -11.5998888 24.39407539
vn -0.9298421144 0.3679401278 -0.003707457567
v -14.65422153 -11.28944016 24.11912537
vn -0.8730230331 0.4876658916 0.003571718233
v -14.66090775 -11.26347446 25.26657486
vn -0.8746691942 0.4805394113 -0.06352674216
v -14.47591209 -13.99136925 24.54946518
vn -0.7924099565 -0.6099133492 0.009600176476
v -14.65086174 -13.73171616 24.23299599
vn -0.8697957993 -0.4934118092 0.0002798482601
v -14.47653675 -13.99040413 23.81038284
vn -0.7940257192 -0.6077991724 -0.0101623293
v -14.46360493 -13.98395538 25.21327019
vn -0.7913239598 -0.6102356911 0.03766653314
v -14.26050472 -14.22950935 24.83214378
vn -0.7100347281 -0.7039347887 0.01806923561
v -14.46680164 -11.00150299 24.37010384
vn -0.7959567308 0.6053446531 -0.003273590002
v -14.46549988 -10.99418163 23.81104279
vn -0.7984960079 0.6017448306 0.01752875187
v -14.4742136 -10.97934341 25.1925621
vn -0.8021258712 0.5937782526 -0.0634156093
v -14.23998547 -10.74347115 24.5311451
vn -0.6969786286 0.7170696855 -0.005646952428
v -14.41986561 -10.92961121 24.8854866
vn -0.775141418 0.6312413216 -0.02627044171
v -14.25656796 -10.73041058 25.18776894
vn -0.7036849856 0.7064617872 -0.07575702667
v -14.03477573 -14.43582535 23.82406807
vn -0.6194573641 -0.7849921584 -0.007736777421
v -14.01651001 -14.43959713 25.11048126
vn -0.6200464368 -0.7839240432 0.03170976043
v -14.03445816 -14.43655586 24.46789169
vn -0.6250878572 -0.780536294 0.00531697832
v -13.76733398 -14.62286758 24.23457718
vn -0.5163927078 -0.856351912 0.0001216339515
v -13.74861908 -14.6113596 25.29207802
vn -0.5029981136 -0.8628152013 0.05042641237
v -13.98304653 -10.52307701 24.6443119
vn -0.5960046649 0.8029224277 -0.009698829614
v -13.97706127 -10.51537228 24.14061928
vn -0.6025622487 0.7979334593 0.01486403588
v -13.99450016 -10.51219368 23.60708046
vn -0.6055656075 0.7949122787 0.03748028353
v -13.71318054 -10.33259773 23.83174515
vn -0.4971319735 0.8673300743 0.02446027286
v -14.01669121 -10.50740147 25.25945854
vn -0.614656508 0.7798885703 -0.1182000116
v -14.00681877 -10.52759361 25.00822639
vn -0.6032626629 0.7958052158 -0.05261404812
v -13.71406937 -10.34624958 24.77933693
vn -0.4985881746 0.8665607572 -0.02196065336
v -14.00693512 -10.45509529 25.4699707
vn -0.6139048934 0.7555539012 -0.2286023796
v -13.74368477 -10.32351398 25.26649094
vn -0.499422282 0.8518376946 -0.1579554528
v -13.53995228 -14.73815823 24.77191162
vn -0.4279381335 -0.9035928845 0.01972055994
v -13.46212959 -14.77810192 24.18369484
vn -0.3986791968 -0.9170894027 -0.001404300332
v -13.13900566 -14.89207935 24.27134895
vn -0.2690725625 -0.9631146193 -0.003190840827
v -13.4525919 -14.75603867 25.32625008
vn -0.3957228661 -0.9167812467 0.05399616063
v -13.14156342 -14.86758041 25.34314728
vn -0.2786171436 -0.9589708447 0.05241617188
v -13.44245052 -10.16599846 25.30878639
vn -0.3859112263 0.8975839019 -0.2131094933
v -13.50560474 -10.22973824 25.03882217
vn -0.405649811 0.9114168882 -0.06904686987
v -13.40906239 -10.19731236 24.7048912
vn -0.3860854805 0.9224461913 -0.005575658754
v -13.11885929 -10.10126495 23.83380508
vn -0.2445321977 0.9696390033 0.002051902236
v -13.43291664 -10.19783115 23.74561882
vn -0.3673195839 0.9300305843 0.01092819218
v -13.42218208 -10.19699764 24.23570251
vn -0.387668699 0.9217357039 0.01078253239
v -13.15129757 -10.03751278 25.38012886
vn -0.2764911354 0.9147097468 -0.2947179675
v -12.90227604 -14.94088268 24.88878822
vn -0.1747745872 -0.9843792915 0.02124321274
v -12.81029034 -14.95735073 24.33731842
vn -0.1270115823 -0.9918965101 -0.003066483187
v -12.79211807 -14.95096397 23.6892662
vn -0.1137990803 -0.9932251573 -0.02352829464
v -12.48562241 -14.97737122 24.2936058
vn 0.0004486415419 -0.9999949336 -0.003160154214
v -12.82354259 -14.93270874 25.40773582
vn -0.1368822902 -0.9888112545 0.0592924878
v -12.50000095 -14.94749355 25.54058838
vn -0.002757989103 -0.9965720177 0.08268403262
v -12.52282906 -10.02030182 23.83288574
vn -0.006829211023 0.999864161 0.01500154287
v -12.81554508 -10.04141808 23.88053513
vn -0.1310211271 0.9913585186 0.006460055709
v -12.9193821 -10.05609417 24.27721024
vn -0.1676279306 0.9858458638 -0.002965721069
v -12.83898258 -9.994997978 25.30539894
vn -0.1273940653 0.9606307149 -0.2468996346
v -12.51765347 -9.989574432 25.26616478
vn 0.0144308703 0.9812538624 -0.192178458
v -12.74353313 -10.01769829 25.0802536
vn -0.1090711951 0.9915647507 -0.07002020627
v -12.56613922 -10.01531792 24.77865219
vn -0.02605040558 0.9994024038 -0.02272014134
v -12.83565712 -10.04192066 24.71813583
vn -0.1452251077 0.9892550111 -0.01685704663
v -13.13025188 -10.10126591 24.58629799
vn -0.2652514577 0.9641638994 -0.005444779526
v -12.19416428 -14.95341778 24.92142487
vn 0.1239466667 -0.9920548797 0.02154878341
v -12.17967415 -14.95756626 24.27747726
vn 0.1286370605 -0.991691649 -0.000364257925
v -12.08066654 -14.93787766 23.69629478
vn 0.1704589576 -0.9851128459 -0.02228037827
v -11.88097572 -14.89855194 24.3462944
vn 0.2595962882 -0.9657000899 0.005752851255
v -12.18462658 -14.93329334 25.43167114
vn 0.1237181649 -0.9905970693 0.05840590224
v -11.88294029 -14.87265778 25.39825249
vn 0.2579002976 -0.9648749828 0.05003722012
v -11.88186359 -10.09586143 23.63425827
vn 0.2511603534 0.9672980309 0.03539731726
v -12.20876026 -10.03706741 23.77965164
vn 0.124047704 0.9919353724 0.02600778639
v -12.27142143 -10.03639412 24.20857239
vn 0.09838537872 0.9951468706 -0.00175495178
v -12.21854019 -10.02202415 25.166399
vn 0.1164579093 0.9898782372 -0.08110853285
v -12.06304264 -10.05101299 24.90456772
vn 0.1623222828 0.9863384366 -0.02807163633
v -12.31476116 -10.0222187 24.88672256
vn 0.07503813505 0.9968317747 -0.02637579851
v -12.34463406 -10.02609062 24.5508194
vn 0.05982963741 0.998061955 -0.01711139083
v -11.59761238 -14.79623222 24.90094948
vn 0.3700785339 -0.9286600351 0.02514775097
v -11.57948971 -14.79920006 24.32382965
vn 0.3827085495 -0.9238451719 0.006651594304
v -11.2823019 -14.65553188 24.22815895
vn 0.5028605461 -0.8643488288 0.005686336197
v -11.58347702 -14.7723484 25.3684845
vn 0.374979794 -0.9255475402 0.05245860666
v -11.29146385 -14.63440228 25.33942986
vn 0.4873533249 -0.871833086 0.04892666638
v -11.57530785 -10.20175171 23.75035667
vn 0.3694978952 0.9289599657 0.02246649936
v -11.24641037 -10.34265709 25.17253685
vn 0.4997483492 0.8613429666 -0.09132293612
v -11.544631 -10.20415115 25.00243759
vn 0.3968641758 0.916313827 -0.05355149508
v -11.57083035 -10.20543289 24.60367393
vn 0.3840434551 0.9231536388 -0.01726321504
v -11.83358002 -10.10385323 24.7591095
vn 0.2863344848 0.957634747 -0.03079362214
v -12.09512329 -10.05312729 24.54597092
vn 0.1633087248 0.9863546491 -0.0208524894
v -11.01379108 -14.4706974 24.87592888
vn 0.5956406593 -0.803088963 0.01613434777
v -10.99866199 -14.46634579 24.16558456
vn 0.6147102118 -0.7887528539 -0.0005319798365
v -10.74734402 -14.24328899 23.8817482
vn 0.7075454593 -0.7065629959 -0.01217394043
v -11.01399231 -14.45484447 25.32916451
vn 0.5927143693 -0.8042731285 0.04283034056
v -10.75516033 -14.24077988 25.27945137
vn 0.6981074214 -0.7152101398 0.03347463906
v -11.02545738 -10.50013733 23.50610924
vn 0.5979240537 0.8011658788 0.02490112744
v -11.02713203 -10.50388908 23.92097855
vn 0.5994807482 0.8003864288 0.002109255875
v -11.28049469 -10.3392334 23.7832756
vn 0.4866437018 0.8735256195 0.01143991575
v -11.49966145 -10.23573399 24.17825508
vn 0.391888231 0.9200057983 0.003590631532
v -10.98742962 -10.51568127 25.12308884
vn 0.605242908 0.7928874493 -0.07078509033
v -10.74588299 -10.7351656 25.07061005
vn 0.7217118144 0.689991951 -0.05516502634
v -10.99614525 -10.52378845 24.77529144
vn 0.6092864871 0.7926937938 -0.02016166411
v -11.00833893 -10.5191679 24.37029457
vn 0.6063885093 0.7951653004 0.002261865418
v -11.27054787 -10.34943581 24.51010895
vn 0.4904925227 0.8714424968 -0.002238198183
v -10.53364658 -14.00573254 24.18558311
vn 0.7898020148 -0.6133381128 -0.005396706518
v -10.53215599 -13.97764301 25.4090023
vn 0.7958149314 -0.603285253 0.05220616236
v -10.53374672 -14.00385761 24.93592834
vn 0.7895660996 -0.6135395765 0.01243345067
v -10.35343742 -13.73824692 24.45843887
vn 0.8651211858 -0.5015623569 0.000722816214
v -10.3481617 -13.68459034 25.48969269
vn 0.871647656 -0.4869039059 0.05616927519
v -10.81280422 -10.68268585 24.12074661
vn 0.6857559085 0.7278315425 0.000393883005
v -10.62577724 -10.88357544 24.23628807
vn 0.7626725435 0.6467456818 0.007119040936
v -10.64561272 -10.85867405 23.79641151
vn 0.7430173755 0.6692593098 0.004149379209
v -10.4655714 -11.07264137 23.58963203
vn 0.7981235981 0.6021075249 0.02156956866
v -10.52113628 -11.01071358 25.01045418
vn 0.8022819757 0.5955920815 -0.04017101973
v -10.3313818 -11.30030537 24.97131729
vn 0.8632077575 0.5040320754 -0.02870617621
v -10.50170422 -11.04709816 24.57800865
vn 0.8080049157 0.589168489 0.002923205961
v -10.4537611 -11.10106182 24.09671211
vn 0.8190680742 0.5734910965 0.0153443059
v -10.23953629 -13.50437832 25.01820374
vn 0.9134734273 -0.4065082669 0.01781490818
v -10.21010399 -13.44309807 24.25117874
vn 0.9250884652 -0.3797483146 -0.001596509712
v -10.10604954 -13.12980938 24.16375542
vn 0.9669803977 -0.2548410296 -0.002232552273
v -10.20472908 -13.36915302 25.60522652
vn 0.9288104773 -0.3672482371 0.04939503223
v -10.10425854 -13.03772926 25.68281364
vn 0.9708080888 -0.2366503626 0.03909242526
v -10.20221329 -11.54359436 23.54549026
vn 0.9286853075 0.3703435063 0.01972947828
v -10.31528854 -11.30378246 23.76053429
vn 0.8758761883 0.4821362197 0.01963718422
v -10.19935608 -11.56618023 24.24331284
vn 0.9288352132 0.3704651892 0.004549661186
v -10.19526386 -11.57205963 24.92211914
vn 0.9250028729 0.3794888556 -0.01891749538
v -10.05406189 -12.86544704 24.96834564
vn 0.9881095886 -0.1534607261 0.009444891475
v -10.0434103 -12.8015461 24.0067234
vn 0.9920343161 -0.1259568036 -0.001680307905
v -10.0223608 -12.46602631 23.77266121
vn 0.9999999404 -0.000171448788 0.0002105471649
v -10.04500103 -12.69825268 25.6897583
vn 0.9931992888 -0.114147462 0.02292366698
v -10.0436306 -12.14337444 23.54973221
vn 0.9912073612 0.1321264803 0.007107855286
v -10.04424858 -12.125494 25.23880959
vn 0.9926458001 0.120644547 -0.009962447919
v -10.04383278 -12.15733147 24.393507
vn 0.9923598766 0.1233763695 -0.0003614458838
v -10.10269547 -11.8536396 24.76021385
vn 0.9675897956 0.2523886561 -0.008362247609
# mm_gid 0
g mmGroup0
f 47//47 46//46 48//48 
f 45//45 49//49 48//48 
f 53//53 54//54 52//52 
f 55//55 53//53 56//56 
f 47//47 51//51 56//56 
f 58//58 59//59 60//60 
f 49//49 58//58 44//44 
f 61//61 57//57 60//60 
f 63//63 64//64 65//65 
f 64//64 55//55 50//50 
f 63//63 67//67 66//66 
f 61//61 68//68 69//69 
f 71//71 68//68 72//72 
f 73//73 72//72 70//70 
f 75//75 67//67 76//76 
f 74//74 77//77 76//76 
f 71//71 79//79 80//80 
f 82//82 81//81 80//80 
f 73//73 83//83 84//84 
f 84//84 85//85 79//79 
f 87//87 83//83 86//86 
f 88//88 77//77 89//89 
f 91//91 78//78 88//88 
f 87//87 93//93 94//94 
f 94//94 95//95 85//85 
f 98//98 97//97 82//82 
f 100//100 90//90 101//101 
f 102//102 103//103 101//101 
f 104//104 92//92 100//100 
f 96//96 108//108 107//107 
f 110//110 111//111 109//109 
f 111//111 112//112 113//113 
f 108//108 114//114 113//113 
f 114//114 98//98 95//95 
f 115//115 103//103 116//116 
f 117//117 118//118 116//116 
f 115//115 120//120 119//119 
f 106//106 123//123 122//122 
f 124//124 125//125 126//126 
f 127//127 112//112 126//126 
f 128//128 118//118 129//129 
f 128//128 132//132 131//131 
f 135//135 136//136 137//137 
f 137//137 138//138 125//125 
f 139//139 130//130 140//140 
f 139//139 143//143 142//142 
f 145//145 144//144 146//146 
f 133//133 147//147 146//146 
f 149//149 150//150 148//148 
f 150//150 151//151 152//152 
f 147//147 136//136 152//152 
f 154//154 143//143 155//155 
f 153//153 156//156 155//155 
f 158//158 159//159 160//160 
f 151//151 158//158 145//145 
f 162//162 163//163 164//164 
f 165//165 159//159 164//164 
f 166//166 156//156 167//167 
f 169//169 157//157 166//166 
f 161//161 165//165 172//172 
f 173//173 171//171 172//172 
f 175//175 168//168 176//176 
f 178//178 170//170 175//175 
f 180//180 181//181 182//182 
f 182//182 173//173 174//174 
f 181//181 177//177 179//179 
f 138//138 123//123 127//127 
f 33//33 47//47 48//48 
f 47//47 2//2 46//46 
f 48//48 46//46 1//1 
f 1//1 45//45 48//48 
f 45//45 4//4 49//49 
f 48//48 49//49 33//33 
f 2//2 53//53 52//52 
f 53//53 5//5 54//54 
f 34//34 55//55 56//56 
f 55//55 5//5 53//53 
f 56//56 53//53 2//2 
f 2//2 47//47 56//56 
f 47//47 33//33 51//51 
f 56//56 51//51 34//34 
f 3//3 58//58 60//60 
f 58//58 4//4 59//59 
f 60//60 59//59 6//6 
f 33//33 49//49 44//44 
f 49//49 4//4 58//58 
f 44//44 58//58 3//3 
f 6//6 61//61 60//60 
f 60//60 57//57 3//3 
f 62//62 6//6 59//59 
f 7//7 63//63 65//65 
f 63//63 5//5 64//64 
f 64//64 5//5 55//55 
f 50//50 55//55 34//34 
f 66//66 54//54 5//5 
f 5//5 63//63 66//66 
f 63//63 7//7 67//67 
f 66//66 67//67 8//8 
f 61//61 6//6 68//68 
f 69//69 68//68 9//9 
f 6//6 62//62 70//70 
f 10//10 71//71 72//72 
f 71//71 9//9 68//68 
f 72//72 68//68 6//6 
f 11//11 73//73 70//70 
f 73//73 10//10 72//72 
f 70//70 72//72 6//6 
f 12//12 75//75 76//76 
f 75//75 8//8 67//67 
f 76//76 67//67 7//7 
f 7//7 74//74 76//76 
f 76//76 77//77 12//12 
f 75//75 12//12 78//78 
f 9//9 71//71 80//80 
f 71//71 10//10 79//79 
f 80//80 79//79 43//43 
f 43//43 82//82 80//80 
f 80//80 81//81 9//9 
f 10//10 73//73 84//84 
f 73//73 11//11 83//83 
f 84//84 83//83 13//13 
f 10//10 84//84 79//79 
f 84//84 13//13 85//85 
f 79//79 85//85 43//43 
f 87//87 13//13 83//83 
f 15//15 88//88 89//89 
f 88//88 12//12 77//77 
f 89//89 90//90 15//15 
f 15//15 91//91 88//88 
f 88//88 78//78 12//12 
f 91//91 15//15 92//92 
f 13//13 87//87 94//94 
f 94//94 93//93 17//17 
f 13//13 94//94 85//85 
f 94//94 17//17 95//95 
f 85//85 95//95 43//43 
f 35//35 96//96 97//97 
f 43//43 98//98 82//82 
f 98//98 35//35 97//97 
f 99//99 17//17 93//93 
f 18//18 100//100 101//101 
f 100//100 15//15 90//90 
f 101//101 90//90 14//14 
f 14//14 102//102 101//101 
f 101//101 103//103 18//18 
f 18//18 104//104 100//100 
f 100//100 92//92 15//15 
f 104//104 18//18 105//105 
f 37//37 106//106 107//107 
f 16//16 96//96 107//107 
f 96//96 35//35 108//108 
f 107//107 108//108 37//37 
f 17//17 99//99 109//109 
f 110//110 19//19 111//111 
f 109//109 111//111 17//17 
f 17//17 111//111 113//113 
f 111//111 19//19 112//112 
f 113//113 112//112 37//37 
f 37//37 108//108 113//113 
f 108//108 35//35 114//114 
f 113//113 114//114 17//17 
f 17//17 114//114 95//95 
f 114//114 35//35 98//98 
f 95//95 98//98 43//43 
f 21//21 115//115 116//116 
f 115//115 18//18 103//103 
f 117//117 20//20 118//118 
f 116//116 118//118 21//21 
f 119//119 105//105 18//18 
f 18//18 115//115 119//119 
f 115//115 21//21 120//120 
f 38//38 121//121 122//122 
f 106//106 37//37 123//123 
f 122//122 123//123 38//38 
f 19//19 110//110 124//124 
f 19//19 124//124 126//126 
f 124//124 22//22 125//125 
f 126//126 125//125 41//41 
f 41//41 127//127 126//126 
f 127//127 37//37 112//112 
f 126//126 112//112 19//19 
f 23//23 128//128 129//129 
f 128//128 21//21 118//118 
f 129//129 118//118 20//20 
f 129//129 130//130 23//23 
f 131//131 120//120 21//21 
f 21//21 128//128 131//131 
f 128//128 23//23 132//132 
f 38//38 133//133 121//121 
f 134//134 24//24 135//135 
f 22//22 135//135 137//137 
f 135//135 24//24 136//136 
f 137//137 136//136 38//38 
f 22//22 137//137 125//125 
f 137//137 38//38 138//138 
f 125//125 138//138 41//41 
f 25//25 139//139 140//140 
f 139//139 23//23 130//130 
f 141//141 25//25 140//140 
f 142//142 132//132 23//23 
f 23//23 139//139 142//142 
f 139//139 25//25 143//143 
f 39//39 145//145 146//146 
f 145//145 26//26 144//144 
f 133//133 38//38 147//147 
f 146//146 147//147 39//39 
f 24//24 134//134 148//148 
f 149//149 27//27 150//150 
f 148//148 150//150 24//24 
f 24//24 150//150 152//152 
f 150//150 27//27 151//151 
f 152//152 151//151 39//39 
f 39//39 147//147 152//152 
f 147//147 38//38 136//136 
f 152//152 136//136 24//24 
f 25//25 141//141 153//153 
f 29//29 154//154 155//155 
f 155//155 143//143 25//25 
f 25//25 153//153 155//155 
f 153//153 28//28 156//156 
f 155//155 156//156 29//29 
f 154//154 29//29 157//157 
f 26//26 158//158 160//160 
f 158//158 27//27 159//159 
f 160//160 159//159 36//36 
f 39//39 151//151 145//145 
f 151//151 27//27 158//158 
f 145//145 158//158 26//26 
f 36//36 161//161 160//160 
f 27//27 149//149 162//162 
f 27//27 162//162 164//164 
f 164//164 163//163 42//42 
f 42//42 165//165 164//164 
f 165//165 36//36 159//159 
f 164//164 159//159 27//27 
f 30//30 166//166 167//167 
f 166//166 29//29 156//156 
f 167//167 156//156 28//28 
f 167//167 168//168 30//30 
f 30//30 169//169 166//166 
f 166//166 157//157 29//29 
f 169//169 30//30 170//170 
f 161//161 36//36 165//165 
f 172//172 165//165 42//42 
f 42//42 173//173 172//172 
f 173//173 40//40 171//171 
f 163//163 174//174 42//42 
f 32//32 175//175 176//176 
f 175//175 30//30 168//168 
f 176//176 177//177 32//32 
f 32//32 178//178 175//175 
f 175//175 170//170 30//30 
f 31//31 180//180 182//182 
f 180//180 32//32 181//181 
f 182//182 181//181 40//40 
f 31//31 182//182 174//174 
f 182//182 40//40 173//173 
f 174//174 173//173 42//42 
f 40//40 181//181 179//179 
f 181//181 32//32 177//177 
f 41//41 138//138 127//127 
f 138//138 38//38 123//123 
f 127//127 123//123 37//37 
